<svg xmlns="http://www.w3.org/2000/svg" width="16" height="16" viewBox="0 0 16 16">
  <g id="Pharmacy_Interventions" data-name="Pharmacy Interventions" transform="translate(-5655.501 -13964.071)">
    <rect id="Rectangle_17191" data-name="Rectangle 17191" width="16" height="16" rx="3" transform="translate(5655.501 13964.071)" fill="#8fd28a"/>
    <g id="Group_66143" data-name="Group 66143" transform="translate(5657.901 13966.145)">
      <g id="Group_66144" data-name="Group 66144" transform="translate(0 0)">
        <path id="Path_3594" data-name="Path 3594" d="M.979,12.873a.284.284,0,0,1-.136-.282c.007-.1,0-.193,0-.289a.18.18,0,0,1,.177-.2c.107,0,.172.071.179.2,0,.072-.022.171.016.21s.146.015.222.015c.878,0,1.756,0,2.634,0,.111,0,.128-.034.127-.134,0-.544,0-1.088,0-1.632A1.879,1.879,0,0,1,4.576,9.6a11.761,11.761,0,0,0,.666-1.119c.486-.838.967-1.678,1.451-2.517.084-.147.072-.181-.084-.246A.809.809,0,0,0,5.6,6.055c-.158.26-.306.525-.458.788a.584.584,0,0,1-.749.3A1.106,1.106,0,0,0,2.967,8.23a1.065,1.065,0,0,0,.283.7.269.269,0,0,1,.083.122.17.17,0,0,1-.083.2.175.175,0,0,1-.228-.047,1.4,1.4,0,0,1-.4-.851,1.454,1.454,0,0,1,1.14-1.58,1.351,1.351,0,0,1,.706.025c.205.06.256.027.379-.151a1.217,1.217,0,0,0,.2-.746c-.013-1,0-2.006-.006-3.01a.454.454,0,0,0-.568-.464.446.446,0,0,0-.338.464q0,1.354,0,2.709c0,.188-.062.281-.185.277s-.173-.092-.173-.277q0-1.713,0-3.427a.489.489,0,0,0-.148-.4.456.456,0,0,0-.761.348c0,.366,0,.733,0,1.1,0,.163-.061.247-.176.245s-.171-.083-.171-.25c0-.1,0-.208,0-.313a.457.457,0,1,0-.91,0c0,.042,0,.085,0,.127q0,1.308,0,2.616c0,.147-.072.235-.183.231s-.172-.088-.172-.231c0-.644,0-1.289,0-1.933a.443.443,0,0,0-.294-.428.45.45,0,0,0-.5.132A.427.427,0,0,0,.354,3.7c0,1.54-.006,3.079,0,4.619A2.074,2.074,0,0,0,.807,9.584,1.865,1.865,0,0,1,1.2,10.8c0,.2,0,.409,0,.614,0,.145-.075.236-.184.231s-.171-.09-.172-.232q0-.37,0-.741a1.274,1.274,0,0,0-.263-.8A2.81,2.81,0,0,1,0,8.09Q.014,5.931,0,3.772A.826.826,0,0,1,.614,2.93a.83.83,0,0,1,.644.111A.879.879,0,0,1,1.628,2.2a.79.79,0,0,1,.891-.006c.051-.562.347-.885.808-.887s.755.316.821.883a.851.851,0,0,1,.62-.107.793.793,0,0,1,.623.749c.005.918,0,1.837,0,2.755,0,.037,0,.074,0,.137a1.226,1.226,0,0,1,.614-.382,1.13,1.13,0,0,1,.817.092.441.441,0,0,1,.2.667c-.454.79-.906,1.581-1.366,2.367-.293.5-.557,1.019-.9,1.493a1.125,1.125,0,0,0-.2.663c0,.656,0,1.312,0,1.968a.3.3,0,0,1-.135.283Z" transform="translate(0 -1.018)" fill="#fff" stroke="#fff" stroke-width="0.5"/>
        <path id="Path_3595" data-name="Path 3595" d="M32.552,0a.339.339,0,0,1,.123.3c0,1.092,0,2.184,0,3.276,0,.233-.059.291-.294.291-.431,0-.863,0-1.294,0a.239.239,0,0,0-.19.081c-.242.249-.49.491-.733.739a.227.227,0,0,1-.268.075c-.1-.044-.123-.137-.122-.24,0-.174,0-.348,0-.521,0-.1-.017-.141-.128-.135-.2.011-.408,0-.612,0-.14,0-.224-.068-.223-.177s.082-.171.215-.172q.428,0,.855,0c.168,0,.241.078.243.251,0,.139,0,.278,0,.417a.069.069,0,0,0,0,.013c.041,0,.055-.036.077-.057.173-.171.346-.341.514-.516a.332.332,0,0,1,.265-.109c.412,0,.824,0,1.236,0,.079,0,.1-.017.1-.1q0-1.487,0-2.975c0-.086-.027-.1-.1-.1q-2.114,0-4.229,0c-.084,0-.109.017-.108.106q.006,1.481,0,2.963c0,.079.017.112.1.1a1.233,1.233,0,0,1,.208,0,.158.158,0,0,1,.158.165.165.165,0,0,1-.157.18c-.158.006-.316.007-.473,0a.2.2,0,0,1-.182-.215c0-.216,0-.432,0-.648,0-.907,0-1.813,0-2.72A.288.288,0,0,1,27.676,0Z" transform="translate(-21.475 0)" fill="#fff" stroke="#fff" stroke-width="0.5"/>
        <path id="Path_3596" data-name="Path 3596" d="M11.476,14.216c0-.258,0-.516,0-.774,0-.129.06-.2.168-.2s.179.071.179.2q0,.768,0,1.536c0,.124-.066.2-.168.206s-.178-.078-.179-.207c0-.254,0-.508,0-.762" transform="translate(-8.95 -10.325)" fill="#fff"/>
        <path id="Path_3597" data-name="Path 3597" d="M9.513,43.438c.207,0,.415,0,.622,0a.176.176,0,0,1,.2.175.178.178,0,0,1-.2.172H8.91c-.123,0-.2-.067-.2-.171s.074-.176.207-.177c.2,0,.4,0,.6,0" transform="translate(-6.79 -33.876)" fill="#fff"/>
        <path id="Path_3598" data-name="Path 3598" d="M40.839,5.315c0-.254,0-.508,0-.762,0-.162-.06-.224-.22-.225q-.271,0-.542,0c-.157,0-.226.068-.226.224q0,.757,0,1.513c0,.145.066.216.208.219q.288.006.576,0c.146,0,.2-.067.2-.218,0-.25,0-.5,0-.751m-.433.613c-.2,0-.2,0-.2-.2,0-.315,0-.631,0-.946,0-.08.018-.1.1-.1.186,0,.186,0,.186.186v.438c0,.177,0,.354,0,.531,0,.069-.014.091-.087.09" transform="translate(-31.078 -3.374)" fill="#fff"/>
        <path id="Path_3599" data-name="Path 3599" d="M34.833,4.328c-.18,0-.361,0-.542,0s-.231.065-.231.23c0,.25,0,.5,0,.751s0,.508,0,.763a.185.185,0,0,0,.2.213q.294.007.588,0a.184.184,0,0,0,.2-.212q0-.763,0-1.525c0-.15-.066-.217-.218-.219m-.218,1.6c-.2,0-.2,0-.2-.195,0-.316,0-.631,0-.947,0-.079.019-.106.1-.1.191,0,.191,0,.191.2v.427c0,.177,0,.354,0,.531,0,.07-.017.092-.089.092" transform="translate(-26.562 -3.374)" fill="#fff"/>
      </g>
    </g>
  </g>
</svg>
