<?xml version="1.0" encoding="utf-8"?>
<!-- Generator: Adobe Illustrator 28.1.0, SVG Export Plug-In . SVG Version: 6.00 Build 0)  -->
<svg version="1.1" id="Layer_1" xmlns="http://www.w3.org/2000/svg" xmlns:xlink="http://www.w3.org/1999/xlink" x="0px" y="0px"
	 viewBox="0 0 485 480" style="enable-background:new 0 0 485 480;" xml:space="preserve">
<style type="text/css">
	.st0{fill:#FFFFFF;}
</style>
<g>
	<g>
		<path class="st0" d="M310.7,13.3c0.7,1.4,2.7,1.7,3,3.4c-0.7,0.7-1.5,1-2.4,0.7c-6.2-1.8-12.5-1.1-18.7-1.1
			c-38.4-0.1-76.7-0.1-115.1,0c-1.7,0-3.6,0.5-4.7-1.4c0.4-0.6,0.7-1.1,1.1-1.7C219.5,13.3,265.1,13.3,310.7,13.3z"/>
	</g>
	<g>
		<path class="st0" d="M17.7,310.6c-0.6-0.2-1.2-0.5-1.8-0.7c0-46.5,0-93,0-139.5c0.6-0.3,1.2-0.5,1.8-0.8c1.6,1.1,1.2,2.8,1.2,4.4
			c0,44.1,0,88.1,0,132.2C18.9,307.7,19.3,309.4,17.7,310.6z"/>
	</g>
	<g>
		<path class="st0" d="M172.7,15c2.9-0.6,5.8-0.8,8.7-0.8c40.6,0,81.2,0.1,121.9,0c3.8,0,7.2,0.5,10.4,2.6c1.6,1.9,1.2,4.1,1.2,6.3
			c0,44.6,0.1,89.2-0.1,133.8c0,8.3,1.9,11,11,11c44.3-0.2,88.6-0.1,132.9-0.1c1.2,0,2.3,0,3.5,0c4.2,0.2,6.4,2.3,6.8,6.5
			c0.1,1.2,0.1,2.3,0.1,3.5c0,41.5,0,83,0,124.6c0,0.3,0,0.6,0,0.9c0.5,6-1.8,9.5-9.3,9.4c-44.3-0.2-88.6-0.1-132.9-0.1
			c-1,0-2,0-3.1,0c-6.8,0-8.9,2.1-8.9,8.9c0,44.7,0,89.5,0,134.2c0,1.3,0,2.6,0,3.9c-0.2,4.6-2.6,6.8-7.2,7.1c-0.9,0-1.8,0-2.6,0
			c-41.7,0-83.3,0-125,0c-0.7,0-1.5,0-2.2,0c-5.5-0.1-7.7-2.3-7.9-7.7c0-0.7,0-1.5,0-2.2c0-36.7,0-73.4,0-110.1c0-2.3,0.1-4.7,0.5-7
			c1.4-6.6,5.3-11.2,11.4-14.1c22.5-10.9,45-21.8,67.4-32.8c29.7-14.5,59.4-29,89-43.4c2.9-1.4,5.2-3.2,6.3-6.3
			c1.6-4.6-0.5-9.3-5.6-11.9c-7.7-3.9-15.4-7.7-23.2-11.5c-42.3-20.7-84.5-41.3-126.8-62c-2.6-1.3-5.3-2.4-7.9-3.8
			c-6.4-3.3-10.2-8.6-11-15.8c-0.2-1.6-0.2-3.2-0.2-4.8c0-36.7,0-73.4,0-110.1C169.8,20.1,169.5,16.9,172.7,15z"/>
	</g>
	<g>
		<path class="st0" d="M17.7,310.6c-0.8-2.4-0.9-4.9-0.9-7.4c0-42.1,0-84.2,0-126.3c0-2.5,0.1-5,0.9-7.4c1.2-2,3.1-1.9,5-1.9
			c7.3,0,14.6,0,21.9,0c36.3,0,72.5,0,108.8,0c1.2,0,2.3,0,3.5,0c3.8,0.2,5.1,1.6,5.3,5.4c0,0.9,0,1.8,0,2.6c0,42.8,0,85.7,0,128.5
			c0,1,0,2.1,0,3.1c-0.3,3.4-1.8,4.9-5.2,5.2c-0.6,0-1.2,0-1.8,0c-43.9,0-87.7,0-131.6,0C21.5,312.5,19.2,312.9,17.7,310.6z"/>
	</g>
</g>
</svg>
